<svg xlink="http://www.w3.org/1999/xlink" viewBox="0 0 5000 5000" xmlns="http://www.w3.org/2000/svg" style="transform: scale(1);"><defs><filter id="goo"><feGaussianBlur in="SourceGraphic" stdDeviation="2.55" result="blur"></feGaussianBlur><feColorMatrix in="blur" type="matrix" values="1 0 0 0 0 0 1 0 0 0 0 0 1 0 0 0 0 0 19 -9" result="good"></feColorMatrix><feComposite in="SourceGraphic" in2="goo" operator="atop"></feComposite></filter><path d="M228,268C220,256 221,241 231,230C250,234 261,239 278,248L275,262Q255,292 228,268z" id="P0"></path><path d="M260,252L246,259L242,255L251,240L260,252z" id="P1"></path><path d="M236,269L231,236C244,239 249,238 260,229L273,247L236,269z" id="P2"></path><path d="M246,230L267,239L270,254L232,260L246,230z" id="P3"></path><path d="M223,250C236,249 236,248 223,245C244,235 259,237 277,252Q278,280 248,277Q220,278 223,250z" id="P4"></path><path d="M246,269L233,259L245,232L265,262L246,269z" id="P5"></path><path d="M276,233C266,258 252,268 226,270C223,267 221,263 221,260Q207,233 233,224L276,233z" id="P6"></path><path d="M266,255L256,266L235,243L250,233L266,255z" id="P7"></path></defs><rect id="RECT" width="5000" height="5000" fill="#3C2828"></rect><g id="group" fill="#094F0D" filter="url(#goo)" opacity="0.88"><use x="-69" y="-161" href="#P2"></use><use x="-119" y="356" href="#P2"></use><use x="-289" y="1064" href="#P6"></use><use x="311" y="1544" href="#P1"></use><use x="44" y="2155" href="#P6"></use><use x="165" y="2339" href="#P3"></use><use x="-11" y="2999" href="#P0"></use><use x="298" y="3484" href="#P5"></use><use x="92" y="3858" href="#P1"></use><use x="-264" y="4320" href="#P3"></use><use x="53" y="5024" href="#P7"></use><use x="-155" y="5326" href="#P5"></use><use x="223" y="61" href="#P2"></use><use x="712" y="646" href="#P7"></use><use x="638" y="1051" href="#P3"></use><use x="443" y="1650" href="#P0"></use><use x="183" y="1990" href="#P7"></use><use x="351" y="2238" href="#P3"></use><use x="353" y="2849" href="#P1"></use><use x="367" y="3660" href="#P0"></use><use x="650" y="4157" href="#P0"></use><use x="717" y="4598" href="#P3"></use><use x="268" y="4952" href="#P6"></use><use x="354" y="5651" href="#P5"></use><use x="881" y="66" href="#P4"></use><use x="927" y="654" href="#P4"></use><use x="966" y="983" href="#P2"></use><use x="988" y="1338" href="#P3"></use><use x="1177" y="1842" href="#P7"></use><use x="960" y="2460" href="#P1"></use><use x="1072" y="2883" href="#P5"></use><use x="1075" y="3648" href="#P0"></use><use x="923" y="4080" href="#P4"></use><use x="1145" y="4473" href="#P7"></use><use x="746" y="5234" href="#P7"></use><use x="814" y="5412" href="#P1"></use><use x="1750" y="135" href="#P1"></use><use x="1367" y="544" href="#P4"></use><use x="1487" y="1163" href="#P1"></use><use x="1554" y="1477" href="#P2"></use><use x="1299" y="1850" href="#P4"></use><use x="1358" y="2598" href="#P0"></use><use x="1687" y="2833" href="#P5"></use><use x="1554" y="3594" href="#P7"></use><use x="1297" y="3760" href="#P3"></use><use x="1526" y="4518" href="#P5"></use><use x="1280" y="5199" href="#P1"></use><use x="1673" y="5171" href="#P2"></use><use x="1990" y="29" href="#P1"></use><use x="1856" y="719" href="#P2"></use><use x="1964" y="934" href="#P1"></use><use x="2000" y="1720" href="#P4"></use><use x="2154" y="2157" href="#P1"></use><use x="2057" y="2582" href="#P2"></use><use x="2072" y="2732" href="#P4"></use><use x="2050" y="3270" href="#P7"></use><use x="1934" y="4045" href="#P4"></use><use x="2046" y="4780" href="#P4"></use><use x="2207" y="5002" href="#P3"></use><use x="2220" y="5369" href="#P5"></use><use x="2437" y="136" href="#P3"></use><use x="2509" y="752" href="#P0"></use><use x="2367" y="1075" href="#P0"></use><use x="2521" y="1394" href="#P7"></use><use x="2534" y="2047" href="#P6"></use><use x="2348" y="2369" href="#P5"></use><use x="2650" y="2961" href="#P5"></use><use x="2492" y="3715" href="#P7"></use><use x="2708" y="3945" href="#P2"></use><use x="2577" y="4729" href="#P0"></use><use x="2517" y="4889" href="#P3"></use><use x="2629" y="5395" href="#P4"></use><use x="3007" y="118" href="#P7"></use><use x="3242" y="704" href="#P3"></use><use x="3052" y="1121" href="#P0"></use><use x="2802" y="1384" href="#P4"></use><use x="2947" y="2040" href="#P4"></use><use x="3117" y="2588" href="#P1"></use><use x="2822" y="2776" href="#P1"></use><use x="3177" y="3408" href="#P2"></use><use x="2837" y="3891" href="#P2"></use><use x="2916" y="4641" href="#P3"></use><use x="3168" y="4811" href="#P0"></use><use x="3237" y="5584" href="#P7"></use><use x="3557" y="334" href="#P2"></use><use x="3444" y="398" href="#P4"></use><use x="3564" y="1114" href="#P3"></use><use x="3652" y="1649" href="#P7"></use><use x="3281" y="2202" href="#P4"></use><use x="3444" y="2344" href="#P0"></use><use x="3708" y="3187" href="#P6"></use><use x="3404" y="3625" href="#P5"></use><use x="3503" y="3949" href="#P2"></use><use x="3762" y="4341" href="#P7"></use><use x="3398" y="4755" href="#P7"></use><use x="3656" y="5544" href="#P3"></use><use x="3792" y="-32" href="#P2"></use><use x="4148" y="639" href="#P6"></use><use x="3905" y="794" href="#P7"></use><use x="4100" y="1452" href="#P3"></use><use x="3921" y="2120" href="#P2"></use><use x="3882" y="2573" href="#P2"></use><use x="3905" y="2958" href="#P7"></use><use x="3705" y="3323" href="#P4"></use><use x="3801" y="3797" href="#P7"></use><use x="4148" y="4425" href="#P4"></use><use x="4117" y="5272" href="#P2"></use><use x="4045" y="5515" href="#P6"></use><use x="4473" y="-104" href="#P0"></use><use x="4517" y="726" href="#P7"></use><use x="4610" y="1191" href="#P7"></use><use x="4275" y="1702" href="#P7"></use><use x="4747" y="2093" href="#P6"></use><use x="4809" y="2412" href="#P2"></use><use x="4753" y="2990" href="#P7"></use><use x="4566" y="3324" href="#P4"></use><use x="4315" y="4037" href="#P2"></use><use x="4267" y="4428" href="#P4"></use><use x="4376" y="5156" href="#P5"></use><use x="4612" y="5249" href="#P4"></use><use x="4964" y="142" href="#P6"></use><use x="4975" y="527" href="#P5"></use><use x="4741" y="874" href="#P1"></use><use x="5045" y="1723" href="#P3"></use><use x="5075" y="1889" href="#P5"></use><use x="5054" y="2406" href="#P7"></use><use x="4852" y="2790" href="#P6"></use><use x="4900" y="3198" href="#P6"></use><use x="5287" y="4056" href="#P2"></use><use x="5117" y="4684" href="#P5"></use><use x="4866" y="4895" href="#P0"></use><use x="5067" y="5756" href="#P5"></use></g></svg>